<?xml version="1.0" encoding="utf-8"?>
<!-- Generator: Adobe Illustrator 18.1.0, SVG Export Plug-In . SVG Version: 6.00 Build 0)  -->
<!DOCTYPE svg PUBLIC "-//W3C//DTD SVG 1.1//EN" "http://www.w3.org/Graphics/SVG/1.1/DTD/svg11.dtd">
<svg version="1.1" id="Layer_1" xmlns="http://www.w3.org/2000/svg" xmlns:xlink="http://www.w3.org/1999/xlink" x="0px" y="0px"
	 viewBox="0 0 32 32" enable-background="new 0 0 32 32" xml:space="preserve">
<circle fill="#939598" cx="16" cy="16" r="16"/>
<g>
	<path fill="#FFFFFF" d="M24.4,16.5l-7.5,7.5c-0.3,0.3-0.8,0.3-1.1,0c-0.3-0.3-0.3-0.8,0-1.1l6.2-6.2H8.2c-0.4,0-0.8-0.4-0.8-0.8
		s0.4-0.8,0.8-0.8h13.7L15.7,9c-0.3-0.3-0.3-0.8,0-1.2c0.3-0.3,0.8-0.3,1.1,0l7.5,7.6c0.2,0.1,0.3,0.4,0.3,0.5
		C24.6,16.2,24.5,16.4,24.4,16.5z"/>
</g>
</svg>
