<?xml version="1.0" encoding="utf-8"?>
<!-- Generator: Adobe Illustrator 18.1.0, SVG Export Plug-In . SVG Version: 6.00 Build 0)  -->
<!DOCTYPE svg PUBLIC "-//W3C//DTD SVG 1.1//EN" "http://www.w3.org/Graphics/SVG/1.1/DTD/svg11.dtd">
<svg version="1.1" id="Layer_1" xmlns="http://www.w3.org/2000/svg" xmlns:xlink="http://www.w3.org/1999/xlink" x="0px" y="0px"
	 viewBox="0 0 32 32" enable-background="new 0 0 32 32" xml:space="preserve">
<circle fill="#939598" cx="16" cy="16" r="16"/>
<g>
	<path fill="#FFFFFF" d="M14.7,20.3v-1c0-1.6,0-2.6,1.6-3.5l1.1-0.6c1.2-0.6,2-1.5,2-2.9c0-1.9-1.6-3-3.4-3c-2.2,0-3.4,1.5-3.7,3.5
		l-1.8-0.4C11,9.4,13,7.6,16.1,7.6c2.8,0,5.4,1.6,5.4,4.6c0,2.1-1.3,3.4-3.1,4.3c-0.5,0.2-1.2,0.6-1.6,1c-0.4,0.5-0.4,1-0.4,1.6v1.1
		H14.7z M16.9,24.4h-2.4V22h2.4V24.4z"/>
</g>
</svg>
